<?xml version="1.0" encoding="UTF-8"?>
<!DOCTYPE svg PUBLIC "-//W3C//DTD SVG 1.1//EN" "http://www.w3.org/Graphics/SVG/1.1/DTD/svg11.dtd">
<svg xmlns="http://www.w3.org/2000/svg" version="1.1" width="512px" height="512px" style="shape-rendering:geometricPrecision; text-rendering:geometricPrecision; image-rendering:optimizeQuality; fill-rule:evenodd; clip-rule:evenodd" xmlns:xlink="http://www.w3.org/1999/xlink">
<g><path style="opacity:0.99" fill="#f2388f" d="M 111.5,70.5 C 106.153,71.7752 100.82,71.7752 95.5,70.5C 82.1903,64.8847 77.0237,54.8847 80,40.5C 85.4572,26.5184 95.6239,21.0184 110.5,24C 124.482,29.4572 129.982,39.6239 127,54.5C 124.348,62.3183 119.181,67.6516 111.5,70.5 Z"/></g>
<g><path style="opacity:0.99" fill="#f2388f" d="M 415.5,70.5 C 410.153,71.7752 404.82,71.7752 399.5,70.5C 386.19,64.8847 381.024,54.8847 384,40.5C 389.457,26.5184 399.624,21.0184 414.5,24C 428.482,29.4572 433.982,39.6239 431,54.5C 428.348,62.3183 423.181,67.6516 415.5,70.5 Z"/></g>
<g><path style="opacity:1" fill="#995be9" d="M 95.5,70.5 C 100.82,71.7752 106.153,71.7752 111.5,70.5C 111.5,100.167 111.5,129.833 111.5,159.5C 106.105,159.267 100.772,159.6 95.5,160.5C 95.5,130.5 95.5,100.5 95.5,70.5 Z"/></g>
<g><path style="opacity:1" fill="#995be9" d="M 399.5,70.5 C 404.82,71.7752 410.153,71.7752 415.5,70.5C 415.5,100.5 415.5,130.5 415.5,160.5C 410.213,159.658 404.88,159.324 399.5,159.5C 399.5,129.833 399.5,100.167 399.5,70.5 Z"/></g>
<g><path style="opacity:0.995" fill="#995cea" d="M 391.5,159.5 C 391.5,180.833 391.5,202.167 391.5,223.5C 393.629,258.428 378.962,283.262 347.5,298C 343.278,299.638 338.945,300.805 334.5,301.5C 316.189,305.631 297.855,308.964 279.5,311.5C 263.5,311.5 247.5,311.5 231.5,311.5C 213.077,309.372 194.744,306.039 176.5,301.5C 147.444,294.945 128.944,277.279 121,248.5C 119.67,240.227 119.17,231.893 119.5,223.5C 119.5,202.167 119.5,180.833 119.5,159.5C 117.382,129.571 128.716,106.404 153.5,90C 168.151,83.1694 183.485,78.5027 199.5,76C 247.359,68.1326 294.693,70.4659 341.5,83C 376.577,96.2913 393.244,121.791 391.5,159.5 Z"/></g>
<g><path style="opacity:1" fill="#f0f1f1" d="M 205.5,135.5 C 237.835,135.333 270.168,135.5 302.5,136C 333.314,141.147 352.148,158.98 359,189.5C 361.732,217.865 351.232,239.699 327.5,255C 319.61,259.074 311.277,261.741 302.5,263C 270.167,263.667 237.833,263.667 205.5,263C 174.98,256.148 157.147,237.314 152,206.5C 150.569,175.611 163.736,153.444 191.5,140C 196.254,138.358 200.921,136.858 205.5,135.5 Z"/></g>
<g><path style="opacity:0.991" fill="#7834bf" d="M 111.5,159.5 C 114.167,159.5 116.833,159.5 119.5,159.5C 119.5,180.833 119.5,202.167 119.5,223.5C 110.75,223.91 102.084,223.41 93.5,222C 88,219.167 83.8333,215 81,209.5C 79.4025,198.573 79.0692,187.573 80,176.5C 82.6523,168.682 87.819,163.348 95.5,160.5C 100.772,159.6 106.105,159.267 111.5,159.5 Z"/></g>
<g><path style="opacity:0.99" fill="#7734be" d="M 391.5,159.5 C 394.167,159.5 396.833,159.5 399.5,159.5C 404.88,159.324 410.213,159.658 415.5,160.5C 423.181,163.348 428.348,168.682 431,176.5C 431.931,187.573 431.597,198.573 430,209.5C 427.167,215 423,219.167 417.5,222C 408.916,223.41 400.25,223.91 391.5,223.5C 391.5,202.167 391.5,180.833 391.5,159.5 Z"/></g>
<g><path style="opacity:1" fill="#7935bf" d="M 201.5,175.5 C 215.817,174.238 225.65,180.238 231,193.5C 232.817,208.369 226.651,218.203 212.5,223C 198.045,224.52 188.545,218.353 184,204.5C 182.669,190.493 188.502,180.826 201.5,175.5 Z"/></g>
<g><path style="opacity:1" fill="#7935bf" d="M 297.5,175.5 C 311.817,174.238 321.65,180.238 327,193.5C 328.817,208.369 322.651,218.203 308.5,223C 294.045,224.52 284.545,218.353 280,204.5C 278.669,190.493 284.502,180.826 297.5,175.5 Z"/></g>
<g><path style="opacity:0.996" fill="#7834bf" d="M 176.5,301.5 C 194.744,306.039 213.077,309.372 231.5,311.5C 231.334,318.508 231.5,325.508 232,332.5C 237.774,349.137 248.941,354.637 265.5,349C 272.554,345.611 277.054,340.111 279,332.5C 279.5,325.508 279.666,318.508 279.5,311.5C 297.855,308.964 316.189,305.631 334.5,301.5C 345.884,310.098 351.884,321.598 352.5,336C 347.344,360.124 341.344,383.957 334.5,407.5C 281.833,407.5 229.167,407.5 176.5,407.5C 169.656,383.957 163.656,360.124 158.5,336C 159.116,321.598 165.116,310.098 176.5,301.5 Z"/></g>
<g><path style="opacity:1" fill="#b384fe" d="M 231.5,311.5 C 247.5,311.5 263.5,311.5 279.5,311.5C 279.666,318.508 279.5,325.508 279,332.5C 277.054,340.111 272.554,345.611 265.5,349C 248.941,354.637 237.774,349.137 232,332.5C 231.5,325.508 231.334,318.508 231.5,311.5 Z"/></g>
<g><path style="opacity:0.991" fill="#995cea" d="M 176.5,407.5 C 229.167,407.5 281.833,407.5 334.5,407.5C 331.836,421.655 323.836,431.488 310.5,437C 305.705,439.033 300.705,439.866 295.5,439.5C 268.833,439.5 242.167,439.5 215.5,439.5C 194.452,438.494 181.452,427.828 176.5,407.5 Z"/></g>
<g><path style="opacity:0.987" fill="#7733bf" d="M 215.5,439.5 C 242.167,439.5 268.833,439.5 295.5,439.5C 298.124,460.425 290.124,475.591 271.5,485C 253.105,491.276 237.271,487.442 224,473.5C 216.48,463.419 213.646,452.085 215.5,439.5 Z"/></g>
</svg>
