<?xml version="1.0" encoding="UTF-8"?>
<!DOCTYPE svg PUBLIC "-//W3C//DTD SVG 1.1//EN" "http://www.w3.org/Graphics/SVG/1.1/DTD/svg11.dtd">
<svg xmlns="http://www.w3.org/2000/svg" version="1.1" width="512px" height="512px" style="shape-rendering:geometricPrecision; text-rendering:geometricPrecision; image-rendering:optimizeQuality; fill-rule:evenodd; clip-rule:evenodd" xmlns:xlink="http://www.w3.org/1999/xlink">
<g><path style="opacity:0.979" fill="#000000" d="M 243.5,-0.5 C 250.5,-0.5 257.5,-0.5 264.5,-0.5C 295.479,8.41932 309.979,29.086 308,61.5C 301.732,90.2676 283.898,105.601 254.5,107.5C 225.972,105.803 208.139,91.1367 201,63.5C 197.975,30.507 212.142,9.17369 243.5,-0.5 Z"/></g>
<g><path style="opacity:0.976" fill="#000000" d="M 58.5,119.5 C 187.167,119.333 315.834,119.5 444.5,120C 454.154,123.467 457.987,130.3 456,140.5C 454.095,146.07 450.261,149.57 444.5,151C 395.792,151.171 347.126,151.671 298.5,152.5C 296.889,155.22 296.056,158.22 296,161.5C 292.648,191.644 290.481,221.81 289.5,252C 290.673,255.528 293.006,256.861 296.5,256C 309.833,249.667 323.167,243.333 336.5,237C 346.898,234.289 355.398,237.122 362,245.5C 377.062,276.623 392.395,307.623 408,338.5C 408.893,339.081 409.893,339.415 411,339.5C 429.936,332.155 446.936,335.155 462,348.5C 462.667,350.167 462.667,351.833 462,353.5C 440.406,365.715 418.573,377.548 396.5,389C 390.761,391.514 385.595,390.681 381,386.5C 365.667,355.167 350.333,323.833 335,292.5C 333.846,291.257 332.512,290.257 331,289.5C 317.787,295.856 304.621,302.356 291.5,309C 253.167,342 214.833,375 176.5,408C 172.186,410.66 167.519,412.327 162.5,413C 135.167,413.333 107.833,413.667 80.5,414C 78.6857,434.132 68.6857,448.466 50.5,457C 47.2325,458.213 43.8992,458.546 40.5,458C 39.8742,457.25 39.3742,456.416 39,455.5C 38.3333,430.167 38.3333,404.833 39,379.5C 39.0265,375.614 40.5265,372.448 43.5,370C 79.4153,368.679 115.415,368.013 151.5,368C 154.965,365.537 158.131,362.704 161,359.5C 175.96,341.538 191.293,323.871 207,306.5C 208.022,304.298 208.522,301.965 208.5,299.5C 206.667,251.169 204.833,202.836 203,154.5C 202.167,153.667 201.333,152.833 200.5,152C 152.5,151.667 104.5,151.333 56.5,151C 45.2905,145.04 42.7905,136.54 49,125.5C 51.8426,122.837 55.0093,120.837 58.5,119.5 Z"/></g>
<g><path style="opacity:0.955" fill="#000000" d="M 486.5,348.5 C 501.484,347.823 507.651,354.823 505,369.5C 503.207,372.295 501.04,374.795 498.5,377C 443.5,405.333 388.5,433.667 333.5,462C 316.823,462.833 300.157,462.666 283.5,461.5C 282.572,460.232 282.405,458.899 283,457.5C 350.529,420.487 418.362,384.154 486.5,348.5 Z"/></g>
<g><path style="opacity:0.934" fill="#000000" d="M 12.5,386.5 C 20.9601,384.645 26.7934,387.645 30,395.5C 30.6667,416.167 30.6667,436.833 30,457.5C 29.5,458 29,458.5 28.5,459C 21.1667,459.667 13.8333,459.667 6.5,459C 5.87424,458.25 5.37424,457.416 5,456.5C 4.33333,436.833 4.33333,417.167 5,397.5C 5.76394,392.582 8.26394,388.916 12.5,386.5 Z"/></g>
<g><path style="opacity:0.991" fill="#000000" d="M 497.5,511.5 C 334.167,511.5 170.833,511.5 7.5,511.5C 6.19947,510.118 5.36614,508.452 5,506.5C 4.33333,495.5 4.33333,484.5 5,473.5C 5.57429,471.508 6.74096,470.008 8.5,469C 171.167,468.333 333.833,468.333 496.5,469C 498.333,469.5 499.5,470.667 500,472.5C 500.667,484.167 500.667,495.833 500,507.5C 499.338,508.984 498.504,510.317 497.5,511.5 Z"/></g>
</svg>
