<?xml version="1.0" encoding="UTF-8"?>
<!DOCTYPE svg PUBLIC "-//W3C//DTD SVG 1.1//EN" "http://www.w3.org/Graphics/SVG/1.1/DTD/svg11.dtd">
<svg xmlns="http://www.w3.org/2000/svg" version="1.1" width="512px" height="512px" style="shape-rendering:geometricPrecision; text-rendering:geometricPrecision; image-rendering:optimizeQuality; fill-rule:evenodd; clip-rule:evenodd" xmlns:xlink="http://www.w3.org/1999/xlink">
<g><path style="opacity:0.938" fill="#000000" d="M 260.5,23.5 C 279.003,21.1704 293.17,27.837 303,43.5C 319.333,66.1667 335.667,88.8333 352,111.5C 364.21,122.045 376.71,132.212 389.5,142C 393.825,146.311 395.325,151.477 394,157.5C 390.777,166.28 387.277,174.946 383.5,183.5C 389.138,185.971 393.305,189.971 396,195.5C 401.56,223.862 407.227,252.195 413,280.5C 432.139,324.25 451.472,367.917 471,411.5C 480.399,434.273 476.899,454.773 460.5,473C 449.211,482.874 436.044,487.374 421,486.5C 391.781,485.423 362.615,483.59 333.5,481C 304.251,476.584 276.418,467.75 250,454.5C 238.297,462.067 225.464,466.234 211.5,467C 205.158,471.67 198.158,475.004 190.5,477C 169.2,478.584 147.866,478.918 126.5,478C 116.38,475.714 110.047,469.547 107.5,459.5C 90.3845,453.944 74.7178,445.777 60.5,435C 43.7479,417.426 42.5812,398.926 57,379.5C 62.3397,373.745 68.8397,369.912 76.5,368C 102.167,367.667 127.833,367.333 153.5,367C 137.205,341.12 127.038,312.954 123,282.5C 101.413,256.535 100.08,229.535 119,201.5C 121.833,198.667 124.667,195.833 127.5,193C 144.62,180.215 161.453,167.048 178,153.5C 178.667,143.833 178.667,134.167 178,124.5C 161.706,110.215 161.372,95.548 177,80.5C 175.715,74.9566 176.382,69.6233 179,64.5C 180.938,61.8941 183.438,60.0608 186.5,59C 203.538,52.9318 220.538,46.7651 237.5,40.5C 243.218,32.1039 250.885,26.4373 260.5,23.5 Z M 263.5,40.5 C 272.888,38.9045 280.388,41.9045 286,49.5C 303.755,74.6765 321.755,99.6765 340,124.5C 351.212,134.047 362.712,143.214 374.5,152C 376.211,153.133 376.711,154.633 376,156.5C 373.258,163.646 370.258,170.646 367,177.5C 358.712,171.547 350.712,165.214 343,158.5C 336.667,149.833 330.333,141.167 324,132.5C 309.167,117.667 294.333,102.833 279.5,88C 275.171,86.8485 271.338,87.6819 268,90.5C 260,103.833 252,117.167 244,130.5C 242.752,139.425 242.085,148.425 242,157.5C 240.28,171.001 235.613,183.334 228,194.5C 224.165,209.172 220.332,223.839 216.5,238.5C 206.722,239.977 197.055,239.477 187.5,237C 180.522,233.357 175.689,227.857 173,220.5C 171.409,207.223 171.076,193.89 172,180.5C 178.896,174.637 186.063,169.137 193.5,164C 198.083,160.088 201.917,155.588 205,150.5C 221,116.5 237,82.5 253,48.5C 255.975,44.9525 259.475,42.2858 263.5,40.5 Z M 226.5,63.5 C 216.619,85.5981 206.452,107.598 196,129.5C 195.667,125.833 195.333,122.167 195,118.5C 190.708,113.407 186.542,108.24 182.5,103C 187.035,96.7711 191.201,90.2711 195,83.5C 194.872,80.5144 194.872,77.5144 195,74.5C 205.331,70.3343 215.831,66.6677 226.5,63.5 Z M 276.5,109.5 C 285.146,117.479 293.479,125.812 301.5,134.5C 291.831,145.015 288.331,157.349 291,171.5C 297.729,194.86 290.895,213.027 270.5,226C 259.61,230.341 248.277,232.175 236.5,231.5C 238.451,215.348 243.618,200.348 252,186.5C 257.922,170.712 260.589,154.379 260,137.5C 265.775,128.276 271.275,118.943 276.5,109.5 Z M 312.5,148.5 C 314.017,148.511 315.184,149.177 316,150.5C 322.045,158.756 328.212,166.923 334.5,175C 342.5,181 350.5,187 358.5,193C 356.765,195.192 355.598,197.692 355,200.5C 354.896,208.291 353.896,215.958 352,223.5C 348.807,232.884 344.807,241.884 340,250.5C 336.634,264.401 340.467,275.901 351.5,285C 355.333,287.5 359.167,290 363,292.5C 364.811,313.614 367.478,334.614 371,355.5C 374.185,371.057 379.352,385.891 386.5,400C 362.403,392.969 338.403,385.302 314.5,377C 308.787,365.732 301.954,355.232 294,345.5C 278.855,330.679 260.688,321.845 239.5,319C 234.878,312.922 230.378,306.755 226,300.5C 224.133,296.534 222.967,292.367 222.5,288C 225.424,274.47 228.424,260.97 231.5,247.5C 257.206,251.96 279.04,244.96 297,226.5C 308.677,211.461 313.01,194.461 310,175.5C 305.936,165.919 306.769,156.919 312.5,148.5 Z M 153.5,194.5 C 154.174,204.032 155.008,213.699 156,223.5C 160.61,240.444 171.443,250.944 188.5,255C 196.521,255.168 204.521,255.668 212.5,256.5C 210.851,261.762 209.518,267.096 208.5,272.5C 186.091,276.448 163.758,280.782 141.5,285.5C 140.054,276.942 136.221,269.609 130,263.5C 118.927,243.44 121.094,224.94 136.5,208C 142.354,203.636 148.021,199.136 153.5,194.5 Z M 373.5,200.5 C 377.182,199.725 379.682,201.059 381,204.5C 385.169,227.513 389.335,250.513 393.5,273.5C 386.518,274.621 379.684,276.287 373,278.5C 368.92,275.543 364.753,272.71 360.5,270C 356.935,266.571 355.435,262.404 356,257.5C 361.161,247.512 365.494,237.178 369,226.5C 370.39,217.727 371.89,209.06 373.5,200.5 Z M 396.5,289.5 C 398.686,290.823 400.186,292.823 401,295.5C 420,338.833 439,382.167 458,425.5C 461.677,445.649 454.177,459.815 435.5,468C 430.233,469.054 424.899,469.554 419.5,469.5C 394.141,468.406 368.808,466.906 343.5,465C 289.915,458.273 243.248,436.94 203.5,401C 195.573,393.911 188.573,386.078 182.5,377.5C 200.607,363.059 219.273,349.392 238.5,336.5C 259.085,339.37 275.585,349.036 288,365.5C 292.454,374.244 297.287,382.744 302.5,391C 334.5,401.667 366.5,412.333 398.5,423C 408.164,425.001 412.33,421.167 411,411.5C 391.139,374.724 380.972,335.391 380.5,293.5C 386.094,292.768 391.427,291.435 396.5,289.5 Z M 201.5,290.5 C 202.833,290.5 204.167,290.5 205.5,290.5C 206.155,298.451 208.655,305.784 213,312.5C 216.656,316.479 219.822,320.812 222.5,325.5C 205.82,338.009 188.987,350.343 172,362.5C 159.122,344.734 149.955,325.068 144.5,303.5C 144.709,302.914 145.043,302.414 145.5,302C 164.338,298.333 183.005,294.5 201.5,290.5 Z M 85.5,383.5 C 111.835,383.333 138.169,383.5 164.5,384C 175.466,397.3 187.466,409.633 200.5,421C 178.594,422.495 156.594,423.828 134.5,425C 124.552,427.949 117.385,434.116 113,443.5C 97.7404,437.955 83.5737,430.455 70.5,421C 60.9959,407.43 62.9959,395.763 76.5,386C 79.6282,385.159 82.6282,384.325 85.5,383.5 Z M 218.5,435.5 C 223.114,438.117 227.447,441.117 231.5,444.5C 228.391,446.388 225.057,447.721 221.5,448.5C 220.34,444.195 219.34,439.861 218.5,435.5 Z M 190.5,437.5 C 200.781,437.109 204.614,441.775 202,451.5C 198.279,455.551 193.779,458.384 188.5,460C 168.538,461.592 148.538,461.925 128.5,461C 127.101,459.938 126.101,458.605 125.5,457C 127.618,450.399 131.618,445.399 137.5,442C 149.443,440.751 161.443,440.085 173.5,440C 179.348,439.411 185.014,438.578 190.5,437.5 Z"/></g>
</svg>
