<?xml version="1.0" encoding="UTF-8"?>
<!DOCTYPE svg PUBLIC "-//W3C//DTD SVG 1.1//EN" "http://www.w3.org/Graphics/SVG/1.1/DTD/svg11.dtd">
<svg xmlns="http://www.w3.org/2000/svg" version="1.1" width="512px" height="512px" style="shape-rendering:geometricPrecision; text-rendering:geometricPrecision; image-rendering:optimizeQuality; fill-rule:evenodd; clip-rule:evenodd" xmlns:xlink="http://www.w3.org/1999/xlink">
<g><path style="opacity:0.964" fill="#000000" d="M 262.5,39.5 C 269.292,38.6673 275.625,39.834 281.5,43C 301.386,69.2189 320.886,95.7189 340,122.5C 352.543,133.378 365.376,143.878 378.5,154C 375.142,161.736 371.976,169.57 369,177.5C 368.577,178.956 367.744,179.456 366.5,179C 358.394,173.195 350.561,167.028 343,160.5C 335.667,150.5 328.333,140.5 321,130.5C 307.5,117 294,103.5 280.5,90C 277.634,88.5432 274.634,88.2099 271.5,89C 261.707,103.415 252.54,118.248 244,133.5C 245.86,156.727 240.527,178.061 228,197.5C 224.655,211.215 221.155,224.882 217.5,238.5C 207.442,239.923 197.442,239.757 187.5,238C 179.911,234.745 174.744,229.245 172,221.5C 170.425,207.547 170.091,193.547 171,179.5C 177.744,174.212 184.577,169.045 191.5,164C 196.415,159.756 200.581,154.923 204,149.5C 220,115.5 236,81.5 252,47.5C 254.975,43.9525 258.475,41.2858 262.5,39.5 Z"/></g>
<g><path style="opacity:0.915" fill="#000000" d="M 225.5,61.5 C 226.675,61.281 227.675,61.6143 228.5,62.5C 218.03,86.1058 207.03,109.439 195.5,132.5C 194.672,128.204 194.172,123.871 194,119.5C 190.333,115.167 186.667,110.833 183,106.5C 181.699,104.635 181.365,102.635 182,100.5C 185.667,95.5 189.333,90.5 193,85.5C 193.782,81.3639 194.282,77.1972 194.5,73C 205.048,69.4324 215.381,65.599 225.5,61.5 Z"/></g>
<g><path style="opacity:0.961" fill="#000000" d="M 276.5,107.5 C 285.812,116.146 294.812,125.146 303.5,134.5C 293.555,144.504 289.721,156.504 292,170.5C 298.982,192.886 293.148,211.053 274.5,225C 269.828,227.837 264.828,229.837 259.5,231C 251.507,231.5 243.507,231.666 235.5,231.5C 237.6,215.086 242.767,199.752 251,185.5C 257.016,169.736 259.683,153.402 259,136.5C 264.845,126.806 270.678,117.139 276.5,107.5 Z"/></g>
<g><path style="opacity:0.96" fill="#000000" d="M 153.5,192.5 C 155.141,202.159 156.308,212.159 157,222.5C 161.465,238.965 171.965,249.465 188.5,254C 196.838,254.792 205.172,255.625 213.5,256.5C 211.692,262.063 210.359,267.73 209.5,273.5C 186.168,277.833 162.835,282.166 139.5,286.5C 139.326,283.126 138.826,279.793 138,276.5C 135.385,272.217 132.385,268.217 129,264.5C 118.89,247.279 119.224,230.279 130,213.5C 137.73,206.264 145.563,199.264 153.5,192.5 Z"/></g>
<g><path style="opacity:0.939" fill="#000000" d="M 372.5,199.5 C 374.857,199.337 377.19,199.503 379.5,200C 380.893,201.171 381.727,202.671 382,204.5C 386.362,227.81 390.529,251.144 394.5,274.5C 387.256,275.769 380.09,277.436 373,279.5C 368.432,276.798 363.932,273.965 359.5,271C 354.779,265.847 353.613,260.014 356,253.5C 365.85,236.75 371.35,218.75 372.5,199.5 Z"/></g>
<g><path style="opacity:0.96" fill="#000000" d="M 205.5,288.5 C 207.03,295.256 209.197,301.922 212,308.5C 216.167,314.167 220.333,319.833 224.5,325.5C 207.138,338.854 189.471,351.854 171.5,364.5C 157.413,345.659 148.247,324.659 144,301.5C 164.624,297.317 185.124,292.983 205.5,288.5 Z"/></g>
<g><path style="opacity:0.976" fill="#000000" d="M 395.5,288.5 C 399.144,288.708 401.311,290.708 402,294.5C 421.275,338.05 440.275,381.717 459,425.5C 462.437,454.73 449.437,469.73 420,470.5C 394.144,469.388 368.31,467.888 342.5,466C 276.623,457.574 222.623,428.074 180.5,377.5C 198.996,362.337 218.329,348.337 238.5,335.5C 258.993,337.991 275.493,347.324 288,363.5C 293.041,372.415 298.207,381.249 303.5,390C 335.5,400.667 367.5,411.333 399.5,422C 407.791,423.955 411.291,420.788 410,412.5C 389.553,375.214 379.72,335.381 380.5,293C 385.756,291.942 390.756,290.442 395.5,288.5 Z"/></g>
<g><path style="opacity:0.973" fill="#000000" d="M 78.5,383.5 C 107.835,383.333 137.169,383.5 166.5,384C 178.133,397.967 190.799,410.967 204.5,423C 201.066,422.535 197.566,422.035 194,421.5C 175.918,423.897 157.751,425.063 139.5,425C 127.574,427.255 118.74,433.755 113,444.5C 95.177,439.094 79.5104,430.094 66,417.5C 60.0136,402.282 64.1803,390.949 78.5,383.5 Z"/></g>
<g><path style="opacity:0.78" fill="#000000" d="M 214.5,432.5 C 214.897,431.475 215.563,431.308 216.5,432C 222.326,436.413 228.326,440.58 234.5,444.5C 229.826,447.169 224.826,448.836 219.5,449.5C 219.832,443.143 218.165,437.477 214.5,432.5 Z"/></g>
<g><path style="opacity:0.928" fill="#000000" d="M 190.5,436.5 C 201.673,436.496 205.839,441.829 203,452.5C 197.757,458.142 191.257,461.309 183.5,462C 165.167,462.667 146.833,462.667 128.5,462C 124.896,460.666 123.729,458.166 125,454.5C 127.422,448.748 131.256,444.248 136.5,441C 154.69,440.209 172.69,438.709 190.5,436.5 Z"/></g>
</svg>
